<svg xmlns="http://www.w3.org/2000/svg" viewBox="0 0 605.15 106.95"><defs><style>.cls-1{fill:#ea466b;}.cls-2{fill:#fff;}</style></defs><title>web moayad</title><g id="Layer_1" data-name="Layer 1"><rect class="cls-1" x="76.59" y="75.88" width="31.01" height="31.06" rx="15.51"/><path class="cls-2" d="M73,.93,52.74,49.43,32.47.93H0V93.82H26.77V42.93L42.68,84.81H62.82L78.71,42.93V75.74a17.61,17.61,0,0,1,25.84-1c.32.32.64.66.93,1V.93Z"/><path class="cls-2" d="M216.12,47.31c0,27.56-21.47,47.83-51,47.83s-51-20.14-51-47.83S135.56,0,165.11,0,216.12,19.88,216.12,47.31Zm-70.49.13c0,12.72,9.27,22.13,19.87,22.13s19.08-9.41,19.08-22.13S176.1,25.57,165.5,25.57,145.63,34.72,145.63,47.44Z"/><path class="cls-2" d="M250.44,80.7l-4.77,13.12H214.13L253.35.93h31.54l37.76,92.89H289.92L285.29,80.7Zm17.75-49.16-9.8,27.16h19.34Z"/><path class="cls-2" d="M376.71,93.82H346V65.59L312.05.93h30.61L361.34,36.7l18-35.77H410l-33.26,64Z"/><path class="cls-2" d="M435.68,80.7l-4.77,13.12H399.37L438.59.93h31.54l37.76,92.89H475.16L470.52,80.7Zm17.75-49.16-9.8,27.16H463Z"/><path class="cls-2" d="M554.66.93c30.61,0,50.49,18.15,50.49,46.38s-20.28,46.51-51.68,46.51H513.19V.93ZM543.93,70h11.53c11.13,0,18.28-8.74,18.28-22.39S565.93,24.78,554,24.78H543.93Z"/></g></svg>